<?xml version="1.0" encoding="UTF-8" standalone="no"?>
<svg
   xmlns:dc="http://purl.org/dc/elements/1.1/"
   xmlns:cc="http://creativecommons.org/ns#"
   xmlns:rdf="http://www.w3.org/1999/02/22-rdf-syntax-ns#"
   xmlns:svg="http://www.w3.org/2000/svg"
   xmlns="http://www.w3.org/2000/svg"
   xmlns:sodipodi="http://sodipodi.sourceforge.net/DTD/sodipodi-0.dtd"
   xmlns:inkscape="http://www.inkscape.org/namespaces/inkscape"
   width="65"
   height="65"
   viewBox="0 0 52 52"
   version="1.1"
   id="svg2"
   inkscape:version="0.48.4 r9939"
   sodipodi:docname="logo.svg">
  <sodipodi:namedview
     pagecolor="#ffffff"
     bordercolor="#666666"
     borderopacity="1"
     objecttolerance="10"
     gridtolerance="10"
     guidetolerance="10"
     inkscape:pageopacity="0"
     inkscape:pageshadow="2"
     inkscape:window-width="1366"
     inkscape:window-height="744"
     id="namedview9"
     showgrid="false"
     inkscape:zoom="1.819759"
     inkscape:cx="-68.721753"
     inkscape:cy="69.358448"
     inkscape:window-x="0"
     inkscape:window-y="24"
     inkscape:window-maximized="1"
     inkscape:current-layer="surface1"
     fit-margin-top="0"
     fit-margin-left="0"
     fit-margin-right="0"
     fit-margin-bottom="0" />
  <metadata
     id="metadata13">
    <rdf:RDF>
      <cc:Work
         rdf:about="">
        <dc:format>image/svg+xml</dc:format>
        <dc:type
           rdf:resource="http://purl.org/dc/dcmitype/StillImage" />
      </cc:Work>
    </rdf:RDF>
  </metadata>
  <defs
     id="defs11" />
  <g
     transform="matrix(0.125313,0,0,0.125313,0,-0.00489504)"
     id="surface1">
    <path
       inkscape:connector-curvature="0"
       style="fill:#333333;fill-opacity:1;fill-rule:evenodd;stroke:none"
       d="m 63.941406,0.0390625 287.074214,0 c 35.3125,0 63.94532,28.6328125 63.94532,63.9453125 l 0,287.074215 C 414.96094,386.37109 386.32812,415 351.01562,415 L 63.941406,415 C 28.628906,415 0,386.37109 0,351.05859 L 0,63.984375 C 0,28.671875 28.628906,0.0390625 63.941406,0.0390625"
       id="path5" />
    <path
       inkscape:connector-curvature="0"
       style="fill:#ffffff;fill-opacity:1;fill-rule:evenodd;stroke:none"
       d="m 203.99609,290.52344 16.97657,0 c 0,0 5.125,-0.5625 7.74609,-3.38282 2.41016,-2.59375 2.33203,-7.45703 2.33203,-7.45703 0,0 -0.33203,-22.77734 10.23828,-26.1289 10.42188,-3.3086 23.80469,22.01172 37.98438,31.74609 10.72656,7.36719 18.875,5.75391 18.875,5.75391 l 37.92578,-0.53125 c 0,0 19.83594,-1.22266 10.42969,-16.82032 -0.76954,-1.27343 -5.48047,-11.53906 -28.19922,-32.625 -23.78125,-22.07421 -20.59375,-18.5039 8.05078,-56.67968 17.44531,-23.25391 24.41797,-37.44532 22.24219,-43.52735 -2.07813,-5.78906 -14.91016,-4.26172 -14.91016,-4.26172 l -42.69922,0.26563 c 0,0 -3.16797,-0.42969 -5.51562,0.97266 -2.29297,1.375 -3.76563,4.58203 -3.76563,4.58203 0,0 -6.76172,17.99218 -15.77344,33.29297 -19.01172,32.28515 -26.61718,33.99609 -29.72265,31.98828 -7.23438,-4.67578 -5.42578,-18.76953 -5.42578,-28.78516 0,-31.29297 4.74609,-44.33594 -9.24219,-47.71484 -4.64063,-1.1211 -8.0586,-1.85938 -19.92969,-1.98047 -15.23828,-0.15625 -28.13281,0.0469 -35.43359,3.62109 -4.85938,2.37891 -8.60547,7.67969 -6.32032,7.98438 2.82032,0.3789 9.21094,1.72656 12.60157,6.33593 4.375,5.95704 4.22265,19.32422 4.22265,19.32422 0,0 2.51563,36.83203 -5.87109,41.40625 -5.75781,3.13672 -13.65234,-3.26953 -30.60547,-32.55859 C 131.52344,160.33984 124.96484,143.75 124.96484,143.75 c 0,0 -1.26171,-3.09766 -3.51953,-4.75781 -2.73437,-2.00782 -6.55859,-2.64453 -6.55859,-2.64453 l -40.578126,0.26171 c 0,0 -6.089844,0.17188 -8.328125,2.82032 -1.992188,2.35937 -0.15625,7.23047 -0.15625,7.23047 0,0 31.765625,74.32031 67.734371,111.77343 32.98828,34.34375 70.4375,32.08985 70.4375,32.08985"
       id="path7" />
  </g>
</svg>
